<?xml version="1.0" encoding="UTF-8"?>
<svg id="uuid-9c756a32-9a87-4da6-ab67-0a7100ef2b4d" data-name="Layer 2" xmlns="http://www.w3.org/2000/svg" width="77.4" height="56.8" xmlns:xlink="http://www.w3.org/1999/xlink" viewBox="0 0 77.4 56.8">
  <defs>
    <style>
      .uuid-d34494d1-70fe-4ec7-8bb7-02428ae16da6 {
        fill: url(#uuid-98205fb5-6e5f-4202-a161-bc6759616717);
      }

      .uuid-380b38b8-6299-4bfb-b295-2df2f6e7e657 {
        fill: url(#uuid-b7315bca-7daa-4b3f-b993-91e188009344);
      }

      .uuid-ba293d8e-1704-44cd-bf5b-11b5cc4559f0 {
        fill: url(#uuid-41d70312-9702-4b41-aa99-2985d5c014a8);
      }

      .uuid-2d05794a-6f94-4328-93d0-6410ecbcd2e0 {
        fill: url(#uuid-4371646a-76bc-45bb-a812-0692119fd746);
      }
    </style>
    <linearGradient id="uuid-b7315bca-7daa-4b3f-b993-91e188009344" x1="-4.6" y1="4.5" x2="76.7" y2="4.9" gradientTransform="matrix(1, 0, 0, 1, 0, 0)" gradientUnits="userSpaceOnUse">
      <stop offset="0" stop-color="#dba900"/>
      <stop offset=".4" stop-color="#ce648d"/>
      <stop offset=".7" stop-color="#63a2d6"/>
      <stop offset="1" stop-color="#027649"/>
    </linearGradient>
    <linearGradient id="uuid-4371646a-76bc-45bb-a812-0692119fd746" x1="-4.7" y1="20.3" x2="76.6" y2="20.7" xlink:href="#uuid-b7315bca-7daa-4b3f-b993-91e188009344"/>
    <linearGradient id="uuid-41d70312-9702-4b41-aa99-2985d5c014a8" x1="-4.8" y1="36.2" x2="76.6" y2="36.6" xlink:href="#uuid-b7315bca-7daa-4b3f-b993-91e188009344"/>
    <linearGradient id="uuid-98205fb5-6e5f-4202-a161-bc6759616717" x1="-4.9" y1="52" x2="76.5" y2="52.4" xlink:href="#uuid-b7315bca-7daa-4b3f-b993-91e188009344"/>
  </defs>
  <g id="uuid-6e7d6606-ad5b-44f3-811e-d034dae71280" data-name="Layer 1">
    <g>
      <path class="uuid-380b38b8-6299-4bfb-b295-2df2f6e7e657" d="M.2,3.5c.5-1,1.7-1.4,2.6-.7,.5,.4,1,.9,1.5,1.4,.7,.7,1.4,1.2,2.3,1.4,1.2,.3,2.3,0,3.3-.8,.8-.7,1.5-1.4,2.3-2,.9-.8,1.9-1.6,3-2.1C16.2,.2,17.1,0,18.1,0c1.6,0,2.9,.7,4.1,1.7,1,.8,1.9,1.7,2.8,2.6,.6,.6,1.2,1.1,2,1.3,1.5,.3,2.8,0,3.9-1,.6-.5,1.1-1,1.6-1.5,.9-.8,1.9-1.6,3-2.2,1.4-.7,2.9-1,4.4-.6,.7,.2,1.3,.5,2,.9,.8,.5,1.6,1.1,2.3,1.8,.7,.7,1.4,1.4,2.2,2,1.4,1.1,3.1,1.1,4.5,.1,.8-.5,1.5-1.2,2.2-1.8,1.1-1.1,2.3-2,3.7-2.6,1-.5,2.1-.6,3.2-.5,.8,.1,1.6,.4,2.3,.9,1.2,.7,2.3,1.6,3.3,2.6,.5,.5,1.1,1.1,1.7,1.5,1.4,.8,3.4,.8,4.8-.5,.8-.7,1.6-1.4,2.4-2.1,1-.8,2.6-.3,2.9,1,.1,.7,0,1.3-.5,1.7-.5,.5-1,.9-1.5,1.3-.6,.5-1.3,1.1-2,1.6-.9,.6-1.9,.9-2.9,1-.3,0-.5,0-.8,0-1.8,0-3.4-.6-4.8-1.7-.7-.5-1.3-1.1-1.9-1.7-.6-.6-1.3-1.2-2-1.7-1.1-.6-2.2-.6-3.3,.1-.6,.4-1.2,.9-1.7,1.4-1,1-2.1,1.9-3.3,2.6-1.3,.7-2.7,1.1-4.1,.9-1.8-.2-3.3-.8-4.7-2-1-.9-1.9-1.8-2.9-2.6-.3-.3-.7-.5-1.1-.7-.8-.4-1.7-.3-2.5,.1-.7,.4-1.3,.8-1.8,1.4-.8,.7-1.6,1.6-2.5,2.2-1.2,.9-2.5,1.4-4,1.6-.9,.1-1.8,0-2.7-.2-1.4-.4-2.6-1.1-3.7-2.1-.6-.6-1.2-1.2-1.9-1.8-.4-.3-.7-.6-1.1-.9-.9-.6-1.9-.7-2.9-.2-.5,.2-1,.6-1.4,1-.8,.7-1.6,1.4-2.4,2.1-1.2,1.1-2.7,1.9-4.3,2.1-1.4,.2-2.8,0-4.1-.6-1.2-.6-2.3-1.3-3.2-2.3-.3-.3-.5-.5-.8-.8C0,4.9-.2,4.3,.2,3.5Z"/>
      <path class="uuid-2d05794a-6f94-4328-93d0-6410ecbcd2e0" d="M.2,19.4c.5-1,1.7-1.4,2.6-.7,.5,.4,1,.9,1.5,1.4,.7,.7,1.4,1.2,2.3,1.4,1.2,.3,2.3,0,3.3-.8,.8-.7,1.5-1.4,2.3-2,.9-.8,1.9-1.6,3-2.1,.9-.4,1.8-.7,2.8-.6,1.6,0,2.9,.7,4.1,1.7,1,.8,1.9,1.7,2.8,2.6,.6,.6,1.2,1.1,2,1.3,1.5,.3,2.8,0,3.9-1,.6-.5,1.1-1,1.6-1.5,.9-.8,1.9-1.6,3-2.2,1.4-.7,2.9-1,4.4-.6,.7,.2,1.3,.5,2,.9,.8,.5,1.6,1.1,2.3,1.8,.7,.7,1.4,1.4,2.2,2,1.4,1.1,3.1,1.1,4.5,.1,.8-.5,1.5-1.2,2.2-1.8,1.1-1.1,2.3-2,3.7-2.6,1-.5,2.1-.6,3.2-.5,.8,.1,1.6,.4,2.3,.9,1.2,.7,2.3,1.6,3.3,2.6,.5,.5,1.1,1.1,1.7,1.5,1.4,.8,3.4,.8,4.8-.5,.8-.7,1.6-1.4,2.4-2.1,1-.8,2.6-.3,2.9,1,.1,.7,0,1.3-.5,1.7-.5,.5-1,.9-1.5,1.3-.6,.5-1.3,1.1-2,1.6-.9,.6-1.9,.9-2.9,1-.3,0-.5,0-.8,0-1.8,0-3.4-.6-4.8-1.7-.7-.5-1.3-1.1-1.9-1.7-.6-.6-1.3-1.2-2-1.7-1.1-.6-2.2-.6-3.3,.1-.6,.4-1.2,.9-1.7,1.4-1,1-2.1,1.9-3.3,2.6-1.3,.7-2.7,1.1-4.1,.9-1.8-.2-3.3-.8-4.7-2-1-.9-1.9-1.8-2.9-2.6-.3-.3-.7-.5-1.1-.7-.8-.4-1.7-.3-2.5,.1-.7,.4-1.3,.8-1.8,1.4-.8,.7-1.6,1.6-2.5,2.2-1.2,.9-2.5,1.4-4,1.6-.9,.1-1.8,0-2.7-.2-1.4-.4-2.6-1.1-3.7-2.1-.6-.6-1.2-1.2-1.9-1.8-.4-.3-.7-.6-1.1-.9-.9-.6-1.9-.7-2.9-.2-.5,.2-1,.6-1.4,1-.8,.7-1.6,1.4-2.4,2.1-1.2,1.1-2.7,1.9-4.3,2.1-1.4,.2-2.8,0-4.1-.6-1.2-.6-2.3-1.3-3.2-2.3-.3-.3-.5-.5-.8-.8-.5-.6-.7-1.3-.3-2Z"/>
      <path class="uuid-ba293d8e-1704-44cd-bf5b-11b5cc4559f0" d="M.2,35.2c.5-1,1.7-1.4,2.6-.7,.5,.4,1,.9,1.5,1.4,.7,.7,1.4,1.2,2.3,1.4,1.2,.3,2.3,0,3.3-.8,.8-.7,1.5-1.4,2.3-2,.9-.8,1.9-1.6,3-2.1,.9-.4,1.8-.7,2.8-.6,1.6,0,2.9,.7,4.1,1.7,1,.8,1.9,1.7,2.8,2.6,.6,.6,1.2,1.1,2,1.3,1.5,.3,2.8,0,3.9-1,.6-.5,1.1-1,1.6-1.5,.9-.8,1.9-1.6,3-2.2,1.4-.7,2.9-1,4.4-.6,.7,.2,1.3,.5,2,.9,.8,.5,1.6,1.1,2.3,1.8,.7,.7,1.4,1.4,2.2,2,1.4,1.1,3.1,1.1,4.5,.1,.8-.5,1.5-1.2,2.2-1.8,1.1-1.1,2.3-2,3.7-2.6,1-.5,2.1-.6,3.2-.5,.8,.1,1.6,.4,2.3,.9,1.2,.7,2.3,1.6,3.3,2.6,.5,.5,1.1,1.1,1.7,1.5,1.4,.8,3.4,.8,4.8-.5,.8-.7,1.6-1.4,2.4-2.1,1-.8,2.6-.3,2.9,1,.1,.7,0,1.3-.5,1.7-.5,.5-1,.9-1.5,1.3-.6,.5-1.3,1.1-2,1.6-.9,.6-1.9,.9-2.9,1-.3,0-.5,0-.8,0-1.8,0-3.4-.6-4.8-1.7-.7-.5-1.3-1.1-1.9-1.7-.6-.6-1.3-1.2-2-1.7-1.1-.6-2.2-.6-3.3,.1-.6,.4-1.2,.9-1.7,1.4-1,1-2.1,1.9-3.3,2.6-1.3,.7-2.7,1.1-4.1,.9-1.8-.2-3.3-.8-4.7-2-1-.9-1.9-1.8-2.9-2.6-.3-.3-.7-.5-1.1-.7-.8-.4-1.7-.3-2.5,.1-.7,.4-1.3,.8-1.8,1.4-.8,.7-1.6,1.6-2.5,2.2-1.2,.9-2.5,1.4-4,1.6-.9,.1-1.8,0-2.7-.2-1.4-.4-2.6-1.1-3.7-2.1-.6-.6-1.2-1.2-1.9-1.8-.4-.3-.7-.6-1.1-.9-.9-.6-1.9-.7-2.9-.2-.5,.2-1,.6-1.4,1-.8,.7-1.6,1.4-2.4,2.1-1.2,1.1-2.7,1.9-4.3,2.1-1.4,.2-2.8,0-4.1-.6-1.2-.6-2.3-1.3-3.2-2.3-.3-.3-.5-.5-.8-.8-.5-.6-.7-1.3-.3-2Z"/>
      <path class="uuid-d34494d1-70fe-4ec7-8bb7-02428ae16da6" d="M.2,51.1c.5-1,1.7-1.4,2.6-.7,.5,.4,1,.9,1.5,1.4,.7,.7,1.4,1.2,2.3,1.4,1.2,.3,2.3,0,3.3-.8,.8-.7,1.5-1.4,2.3-2,.9-.8,1.9-1.6,3-2.1,.9-.4,1.8-.7,2.8-.6,1.6,0,2.9,.7,4.1,1.7,1,.8,1.9,1.7,2.8,2.6,.6,.6,1.2,1.1,2,1.3,1.5,.3,2.8,0,3.9-1,.6-.5,1.1-1,1.6-1.5,.9-.8,1.9-1.6,3-2.2,1.4-.7,2.9-1,4.4-.6,.7,.2,1.3,.5,2,.9,.8,.5,1.6,1.1,2.3,1.8,.7,.7,1.4,1.4,2.2,2,1.4,1.1,3.1,1.1,4.5,.1,.8-.5,1.5-1.2,2.2-1.8,1.1-1.1,2.3-2,3.7-2.6,1-.5,2.1-.6,3.2-.5,.8,.1,1.6,.4,2.3,.9,1.2,.7,2.3,1.6,3.3,2.6,.5,.5,1.1,1.1,1.7,1.5,1.4,.8,3.4,.8,4.8-.5,.8-.7,1.6-1.4,2.4-2.1,1-.8,2.6-.3,2.9,1,.1,.7,0,1.3-.5,1.7-.5,.5-1,.9-1.5,1.3-.6,.5-1.3,1.1-2,1.6-.9,.6-1.9,.9-2.9,1-.3,0-.5,0-.8,0-1.8,0-3.4-.6-4.8-1.7-.7-.5-1.3-1.1-1.9-1.7-.6-.6-1.3-1.2-2-1.7-1.1-.6-2.2-.6-3.3,.1-.6,.4-1.2,.9-1.7,1.4-1,1-2.1,1.9-3.3,2.6-1.3,.7-2.7,1.1-4.1,.9-1.8-.2-3.3-.8-4.7-2-1-.9-1.9-1.8-2.9-2.6-.3-.3-.7-.5-1.1-.7-.8-.4-1.7-.3-2.5,.1-.7,.4-1.3,.8-1.8,1.4-.8,.7-1.6,1.6-2.5,2.2-1.2,.9-2.5,1.4-4,1.6-.9,.1-1.8,0-2.7-.2-1.4-.4-2.6-1.1-3.7-2.1-.6-.6-1.2-1.2-1.9-1.8-.4-.3-.7-.6-1.1-.9-.9-.6-1.9-.7-2.9-.2-.5,.2-1,.6-1.4,1-.8,.7-1.6,1.4-2.4,2.1-1.2,1.1-2.7,1.9-4.3,2.1-1.4,.2-2.8,0-4.1-.6-1.2-.6-2.3-1.3-3.2-2.3-.3-.3-.5-.5-.8-.8-.5-.6-.7-1.3-.3-2Z"/>
    </g>
  </g>
</svg>